<?xml version="1.0" encoding="utf-8"?>
<!-- Generator: Adobe Illustrator 22.1.0, SVG Export Plug-In . SVG Version: 6.00 Build 0)  -->
<svg version="1.1" id="Layer_1" xmlns="http://www.w3.org/2000/svg" xmlns:xlink="http://www.w3.org/1999/xlink" x="0px" y="0px"
	 viewBox="0 0 242.2 58.6" style="enable-background:new 0 0 242.2 58.6;" xml:space="preserve">
<style type="text/css">
	.st0{fill:#FFFFFF;}
</style>
<g>
	<path class="st0" d="M242.2,6.8c0,1.9-0.7,3.5-2,4.8c-1.4,1.3-3,1.9-5,1.9c-1,0-1.9-0.2-2.7-0.5c-0.9-0.3-1.6-0.8-2.2-1.4
		s-1.2-1.3-1.5-2.1c-0.4-0.8-0.5-1.7-0.5-2.7c0-0.9,0.2-1.8,0.5-2.6c0.4-0.8,0.9-1.5,1.5-2.1c0.7-0.6,1.4-1.1,2.2-1.4
		s1.8-0.5,2.7-0.5c2,0,3.7,0.6,5,1.9C241.5,3.2,242.2,4.8,242.2,6.8z"/>
	<g>
		<path class="st0" d="M15,57.2c-0.2,0.2-0.7,0.4-1.6,0.4H1.9C0.6,57.6,0,57,0,55.9V2.8c0-1.1,0.6-1.7,1.9-1.7h11.5
			c0.9,0,1.5,0.1,1.6,0.4s0.3,0.7,0.3,1.3v53.1C15.2,56.5,15.2,57,15,57.2z"/>
		<path class="st0" d="M42.5,25.7c-0.5,0-1.2,0-2,0.1c-0.9,0.1-1.6,0.1-2.4,0.2v29.9c0,0.7-0.1,1.1-0.3,1.3
			c-0.2,0.2-0.7,0.3-1.6,0.3H25.5c-1.2,0-1.9-0.5-1.9-1.6V21.3c0-1.7,0.3-3.1,0.8-4.2c0.5-1,1.8-1.8,3.6-2.2
			c0.5-0.1,1.3-0.2,2.4-0.4c1.1-0.1,2.2-0.2,3.5-0.3c1.3-0.1,2.5-0.2,3.8-0.2c1.3-0.1,2.4-0.1,3.3-0.1c3.9,0,7.4,0.4,10.3,1.1
			c3,0.7,5.4,1.9,7.4,3.6c2,1.7,3.4,3.9,4.4,6.6c1,2.7,1.5,6,1.5,10v20.7c0,0.7-0.1,1.1-0.3,1.3c-0.2,0.2-0.7,0.3-1.6,0.3H51.9
			c-1.2,0-1.9-0.5-1.9-1.6v-22c0-2.7-0.5-4.8-1.6-6.2C47.4,26.4,45.5,25.7,42.5,25.7z"/>
		<path class="st0" d="M71.5,19.9c-0.2-2.3-0.1-4.6,0.4-6.7s1.5-4.2,3-6s3.4-3.3,5.9-4.5c2.5-1.2,5.5-2,9-2.4
			c3.3-0.3,6.6-0.4,10-0.1c3.4,0.3,6.3,0.9,8.8,1.9c1,0.3,1.5,0.7,1.6,1c0.1,0.4,0,1.2-0.3,2.3l-1.5,6.9c-0.3,1-0.6,1.7-0.9,1.9
			c-0.3,0.2-1,0.2-1.9,0.1c-2.4-0.4-4.8-0.6-7.3-0.7c-2.5-0.1-4.8,0-6.9,0.2c-1.9,0.2-3.1,0.6-3.6,1.2c-0.5,0.6-0.8,1.3-0.7,2
			c0,0.3,0.1,0.7,0.3,1c0.2,0.3,0.5,0.7,0.9,1s1.1,0.7,1.9,1c0.8,0.3,1.9,0.7,3.3,1c3.3,0.9,6.4,1.8,9,2.7c2.7,0.9,5,2,6.9,3.3
			c1.9,1.3,3.5,2.9,4.7,4.7c1.2,1.9,1.9,4.1,2.2,6.7c0.6,5.8-0.8,10.3-4.3,13.6s-8.7,5.3-15.7,6.1c-3.6,0.4-7.5,0.4-11.6,0.1
			c-4.1-0.3-7.8-1.3-11.2-2.9c-0.6-0.3-0.9-0.6-1-1c-0.1-0.4-0.1-1,0.2-1.9l2.3-7.9c0.3-0.9,0.6-1.5,1-1.6c0.4-0.2,1-0.1,1.8,0.1
			c0.8,0.2,1.9,0.5,3.2,0.7c1.3,0.2,2.7,0.4,4.2,0.6c1.5,0.2,3,0.3,4.6,0.3c1.6,0.1,3.2,0,4.7-0.2c1.3-0.1,2.3-0.4,3-0.7
			c0.7-0.3,1.3-0.7,1.7-1.1c0.4-0.4,0.6-0.8,0.7-1.3c0.1-0.4,0.1-0.8,0.1-1.2c-0.1-0.4-0.2-0.8-0.3-1.3c-0.2-0.4-0.4-0.8-0.9-1.2
			c-0.4-0.4-1.1-0.7-2-1.1c-0.9-0.4-2.1-0.7-3.6-1.1c-2.9-0.7-5.6-1.5-8.1-2.3c-2.5-0.8-4.7-1.9-6.7-3.1c-1.9-1.2-3.5-2.6-4.7-4.3
			C72.5,24.3,71.8,22.3,71.5,19.9z"/>
		<path class="st0" d="M149.3,56.2c0,0.2-0.4,0.5-1,0.7c-2.2,0.7-4.5,1.2-6.6,1.3c-2.1,0.2-4.2,0.3-6,0.3c-4.9,0-8.4-1-10.6-3.1
			c-2.2-2.1-3.3-5-3.3-8.7v-21h-5.6c-0.7,0-1-0.2-1.2-0.5s-0.2-0.7-0.2-1.2v-5.7c0-0.5,0.1-0.9,0.2-1.1c0.1-0.2,0.5-0.4,1.2-0.5
			l5.7-1.5V7.7c0-0.8,0.2-1.3,0.5-1.6c0.3-0.3,0.8-0.5,1.4-0.7l10.7-3.3c0.6-0.2,1.1-0.1,1.4,0.1c0.3,0.2,0.5,0.7,0.5,1.4v11.6h9
			c0.7,0,1.1,0.1,1.2,0.3c0.1,0.2,0.1,0.6,0.1,1.1v7.3c0,0.6,0,1-0.1,1.3c-0.1,0.3-0.5,0.4-1.2,0.4h-9v17c0,1.3,0.3,2.2,1,2.7
			c0.7,0.5,1.8,0.7,3.3,0.7c0.9,0,1.9-0.1,3.2-0.2s2.2-0.3,2.9-0.4c0.4-0.1,0.7,0,0.9,0.1c0.2,0.1,0.3,0.4,0.4,0.8l1.2,8.8
			C149.3,55.6,149.3,55.9,149.3,56.2z"/>
		<path class="st0" d="M191,51.6c0,0.8-0.1,1.4-0.2,2c-0.2,0.6-0.8,1.1-1.8,1.6c-1.2,0.6-2.6,1.1-4.1,1.5c-1.5,0.4-3,0.8-4.6,1
			c-1.6,0.3-3.1,0.4-4.7,0.6c-1.6,0.1-3.1,0.2-4.5,0.2c-3.7,0-6.8-0.3-9.4-1c-2.5-0.7-4.6-1.6-6.1-2.8c-1.5-1.2-2.6-2.6-3.3-4.3
			c-0.7-1.7-1-3.5-1-5.4c0-4.7,1.5-8.3,4.4-10.8c3-2.5,6.9-3.7,11.9-3.7h8.8v-1.1c0-0.4-0.1-0.8-0.2-1.3c-0.1-0.5-0.4-0.9-0.8-1.4
			c-0.4-0.4-1-0.8-1.7-1c-0.7-0.3-1.7-0.4-2.9-0.4c-0.8,0-1.6,0.1-2.6,0.1c-1,0.1-2,0.2-3.1,0.3c-1.1,0.1-2.1,0.2-3.2,0.4
			s-2,0.3-2.9,0.6c-0.8,0.2-1.3,0.2-1.5,0c-0.3-0.2-0.5-0.6-0.6-1.2l-1.5-7c-0.2-0.8-0.2-1.3,0-1.5c0.2-0.2,0.4-0.4,0.9-0.6
			c2.6-0.9,5.2-1.5,7.8-1.9c2.6-0.4,5.5-0.6,8.6-0.6c6.1,0,10.7,1.3,13.6,3.8s4.4,6.3,4.4,11.5L191,51.6L191,51.6z M176.5,39.1h-4.7
			c-0.6,0-1.2,0.1-1.8,0.2c-0.6,0.1-1.1,0.3-1.6,0.6c-0.5,0.3-0.9,0.7-1.2,1.3c-0.3,0.6-0.5,1.3-0.5,2.2c0,1.3,0.5,2.2,1.4,2.8
			c0.9,0.6,2.2,0.9,3.7,0.9c0.4,0,1.1-0.1,2.1-0.2c1-0.1,1.9-0.3,2.5-0.7L176.5,39.1L176.5,39.1z"/>
		<path class="st0" d="M226.8,56.2c0,0.2-0.4,0.5-1,0.7c-2.2,0.7-4.5,1.2-6.6,1.3c-2.1,0.2-4.2,0.3-6,0.3c-4.9,0-8.4-1-10.6-3.1
			s-3.3-5-3.3-8.7v-21h-5.6c-0.7,0-1-0.2-1.2-0.5s-0.2-0.7-0.2-1.2v-5.7c0-0.5,0.1-0.9,0.2-1.1c0.1-0.2,0.5-0.4,1.2-0.5l5.7-1.5V7.7
			c0-0.8,0.2-1.3,0.5-1.6c0.3-0.3,0.8-0.5,1.4-0.7l10.7-3.3c0.6-0.2,1.1-0.1,1.4,0.1c0.3,0.2,0.5,0.7,0.5,1.4v11.6h9
			c0.7,0,1.1,0.1,1.2,0.3c0.1,0.2,0.1,0.6,0.1,1.1v7.3c0,0.6,0,1-0.1,1.3c-0.1,0.3-0.5,0.4-1.2,0.4h-9v17c0,1.3,0.3,2.2,1,2.7
			c0.7,0.5,1.8,0.7,3.3,0.7c0.9,0,1.9-0.1,3.2-0.2s2.2-0.3,2.9-0.4c0.4-0.1,0.7,0,0.9,0.1c0.2,0.1,0.3,0.4,0.4,0.8l1.2,8.8
			C226.8,55.6,226.8,55.9,226.8,56.2z"/>
	</g>
</g>
</svg>
